<svg width="77" height="95" viewBox="0 0 77 95" fill="none" xmlns="http://www.w3.org/2000/svg">
<path d="M40.963 0.98875C39.268 -0.329583 36.9139 -0.329583 35.2189 0.98875C26.2731 7.81583 -0.140686 30.0862 0.000564327 56.0292C0.000564327 77.0283 17.0918 94.1667 38.1381 94.1667C59.1843 94.1667 76.2755 77.0754 76.2755 56.0762C76.3226 30.51 49.8617 7.86292 40.963 0.98875Z" fill="url(#paint0_linear_23_530)"/>
<path d="M36.253 39.7481C37.4149 43.2337 36.2287 46.7519 33.6043 47.6131C30.9799 48.4744 27.9087 46.3456 26.7468 42.86C25.5849 39.3744 26.7712 35.8562 29.3955 34.995C32.0199 34.1337 35.0912 36.2625 36.253 39.7481ZM25.3574 48.3362C26.893 50.9687 26.5193 54.0319 24.5287 55.1694C22.538 56.3069 19.678 55.0962 18.1505 52.4637C16.623 49.8312 16.9887 46.7681 18.9793 45.6306C20.9699 44.4931 23.8299 45.7037 25.3574 48.3362ZM22.8224 64.7975C27.0799 53.3169 34.6443 50.4 37.9999 50.4C41.3555 50.4 48.9199 53.3169 53.1774 64.7975C53.4699 65.5856 53.5999 66.4306 53.5999 67.2756V67.4056C53.5999 69.5019 51.9018 71.2 49.8055 71.2C48.8712 71.2 47.9449 71.0862 47.043 70.8587L39.893 69.0712C38.6499 68.7625 37.3499 68.7625 36.1068 69.0712L28.9568 70.8587C28.0549 71.0862 27.1287 71.2 26.1943 71.2C24.098 71.2 22.3999 69.5019 22.3999 67.4056V67.2756C22.3999 66.4306 22.5299 65.5856 22.8224 64.7975ZM51.4712 55.1694C49.4805 54.0319 49.1068 50.9687 50.6424 48.3362C52.178 45.7037 55.0299 44.4931 57.0205 45.6306C59.0112 46.7681 59.3849 49.8312 57.8493 52.4637C56.3137 55.0962 53.4618 56.3069 51.4712 55.1694ZM42.3955 47.6131C39.7712 46.7519 38.5849 43.2337 39.7468 39.7481C40.9087 36.2625 43.9799 34.1337 46.6043 34.995C49.2287 35.8562 50.4149 39.3744 49.253 42.86C48.0912 46.3456 45.0199 48.4744 42.3955 47.6131Z" fill="white" fill-opacity="0.8"/>
<defs>
<linearGradient id="paint0_linear_23_530" x1="38.1378" y1="0" x2="38.1378" y2="94.1667" gradientUnits="userSpaceOnUse">
<stop stop-color="#E59562"/>
<stop offset="1" stop-color="#88512B"/>
</linearGradient>
</defs>
</svg>
